<mxfile host="app.diagrams.net" modified="2021-05-10T17:34:00.154Z" agent="5.0 (X11; Linux x86_64) AppleWebKit/537.36 (KHTML, like Gecko) Chrome/90.0.4430.93 Safari/537.36" etag="BM2KrrgsE7s-6okM0PRi" version="14.6.11" type="github">
  <diagram id="3lkcZplmkiBtZA0ICGr5" name="Page-1">
    <mxGraphModel dx="1350" dy="810" grid="1" gridSize="10" guides="1" tooltips="1" connect="1" arrows="1" fold="1" page="1" pageScale="1" pageWidth="827" pageHeight="1169" math="0" shadow="0">
      <root>
        <mxCell id="0" />
        <mxCell id="1" parent="0" />
        <mxCell id="kCLPto10Mg7Tokv_uA4M-14" style="edgeStyle=orthogonalEdgeStyle;rounded=0;orthogonalLoop=1;jettySize=auto;html=1;exitX=1;exitY=0.5;exitDx=0;exitDy=0;entryX=0;entryY=0.5;entryDx=0;entryDy=0;strokeWidth=2;" edge="1" parent="1" source="kCLPto10Mg7Tokv_uA4M-2" target="kCLPto10Mg7Tokv_uA4M-3">
          <mxGeometry relative="1" as="geometry" />
        </mxCell>
        <mxCell id="kCLPto10Mg7Tokv_uA4M-2" value="" style="rounded=0;whiteSpace=wrap;html=1;strokeWidth=2;" vertex="1" parent="1">
          <mxGeometry x="230" y="380" width="120" height="60" as="geometry" />
        </mxCell>
        <mxCell id="kCLPto10Mg7Tokv_uA4M-15" style="edgeStyle=orthogonalEdgeStyle;rounded=0;orthogonalLoop=1;jettySize=auto;html=1;entryX=0;entryY=0.5;entryDx=0;entryDy=0;strokeWidth=2;" edge="1" parent="1" source="kCLPto10Mg7Tokv_uA4M-3" target="kCLPto10Mg7Tokv_uA4M-4">
          <mxGeometry relative="1" as="geometry" />
        </mxCell>
        <mxCell id="kCLPto10Mg7Tokv_uA4M-3" value="" style="rounded=0;whiteSpace=wrap;html=1;strokeWidth=2;" vertex="1" parent="1">
          <mxGeometry x="390" y="380" width="120" height="60" as="geometry" />
        </mxCell>
        <mxCell id="kCLPto10Mg7Tokv_uA4M-4" value="" style="rounded=0;whiteSpace=wrap;html=1;strokeWidth=2;perimeterSpacing=0;" vertex="1" parent="1">
          <mxGeometry x="560" y="380" width="120" height="60" as="geometry" />
        </mxCell>
        <mxCell id="kCLPto10Mg7Tokv_uA4M-5" value="" style="shape=table;html=1;whiteSpace=wrap;startSize=0;container=1;collapsible=0;childLayout=tableLayout;strokeWidth=2;" vertex="1" parent="1">
          <mxGeometry x="320" y="110" width="70" height="200" as="geometry" />
        </mxCell>
        <mxCell id="kCLPto10Mg7Tokv_uA4M-6" value="" style="shape=partialRectangle;html=1;whiteSpace=wrap;collapsible=0;dropTarget=0;pointerEvents=0;fillColor=none;top=0;left=0;bottom=0;right=0;points=[[0,0.5],[1,0.5]];portConstraint=eastwest;strokeWidth=2;" vertex="1" parent="kCLPto10Mg7Tokv_uA4M-5">
          <mxGeometry width="70" height="50" as="geometry" />
        </mxCell>
        <mxCell id="kCLPto10Mg7Tokv_uA4M-7" value="" style="shape=partialRectangle;html=1;whiteSpace=wrap;connectable=0;overflow=hidden;top=0;left=0;bottom=0;right=0;strokeWidth=2;fillColor=none;" vertex="1" parent="kCLPto10Mg7Tokv_uA4M-6">
          <mxGeometry width="70" height="50" as="geometry" />
        </mxCell>
        <mxCell id="kCLPto10Mg7Tokv_uA4M-8" value="" style="shape=partialRectangle;html=1;whiteSpace=wrap;collapsible=0;dropTarget=0;pointerEvents=0;fillColor=none;top=0;left=0;bottom=0;right=0;points=[[0,0.5],[1,0.5]];portConstraint=eastwest;" vertex="1" parent="kCLPto10Mg7Tokv_uA4M-5">
          <mxGeometry y="50" width="70" height="50" as="geometry" />
        </mxCell>
        <mxCell id="kCLPto10Mg7Tokv_uA4M-9" value="" style="shape=partialRectangle;html=1;whiteSpace=wrap;connectable=0;overflow=hidden;fillColor=none;top=0;left=0;bottom=0;right=0;strokeWidth=2;" vertex="1" parent="kCLPto10Mg7Tokv_uA4M-8">
          <mxGeometry width="70" height="50" as="geometry" />
        </mxCell>
        <mxCell id="kCLPto10Mg7Tokv_uA4M-10" value="" style="shape=partialRectangle;html=1;whiteSpace=wrap;collapsible=0;dropTarget=0;pointerEvents=0;fillColor=none;top=0;left=0;bottom=0;right=0;points=[[0,0.5],[1,0.5]];portConstraint=eastwest;" vertex="1" parent="kCLPto10Mg7Tokv_uA4M-5">
          <mxGeometry y="100" width="70" height="50" as="geometry" />
        </mxCell>
        <mxCell id="kCLPto10Mg7Tokv_uA4M-11" value="" style="shape=partialRectangle;html=1;whiteSpace=wrap;connectable=0;overflow=hidden;fillColor=none;top=0;left=0;bottom=0;right=0;" vertex="1" parent="kCLPto10Mg7Tokv_uA4M-10">
          <mxGeometry width="70" height="50" as="geometry" />
        </mxCell>
        <mxCell id="kCLPto10Mg7Tokv_uA4M-12" value="" style="shape=partialRectangle;html=1;whiteSpace=wrap;collapsible=0;dropTarget=0;pointerEvents=0;fillColor=none;top=0;left=0;bottom=0;right=0;points=[[0,0.5],[1,0.5]];portConstraint=eastwest;" vertex="1" parent="kCLPto10Mg7Tokv_uA4M-5">
          <mxGeometry y="150" width="70" height="50" as="geometry" />
        </mxCell>
        <mxCell id="kCLPto10Mg7Tokv_uA4M-13" value="" style="shape=partialRectangle;html=1;whiteSpace=wrap;connectable=0;overflow=hidden;fillColor=none;top=0;left=0;bottom=0;right=0;" vertex="1" parent="kCLPto10Mg7Tokv_uA4M-12">
          <mxGeometry width="70" height="50" as="geometry" />
        </mxCell>
        <mxCell id="kCLPto10Mg7Tokv_uA4M-17" style="edgeStyle=orthogonalEdgeStyle;rounded=0;orthogonalLoop=1;jettySize=auto;html=1;exitX=0.5;exitY=1;exitDx=0;exitDy=0;entryX=0.1;entryY=0;entryDx=0;entryDy=0;entryPerimeter=0;strokeWidth=2;" edge="1" parent="1" source="kCLPto10Mg7Tokv_uA4M-16" target="kCLPto10Mg7Tokv_uA4M-2">
          <mxGeometry relative="1" as="geometry" />
        </mxCell>
        <mxCell id="kCLPto10Mg7Tokv_uA4M-16" value="Head" style="text;html=1;strokeColor=none;fillColor=none;align=center;verticalAlign=middle;whiteSpace=wrap;rounded=0;fontSize=18;" vertex="1" parent="1">
          <mxGeometry x="222" y="310" width="40" height="20" as="geometry" />
        </mxCell>
        <mxCell id="kCLPto10Mg7Tokv_uA4M-19" style="edgeStyle=orthogonalEdgeStyle;rounded=0;orthogonalLoop=1;jettySize=auto;html=1;entryX=1;entryY=0;entryDx=0;entryDy=0;strokeWidth=2;" edge="1" parent="1" source="kCLPto10Mg7Tokv_uA4M-18" target="kCLPto10Mg7Tokv_uA4M-4">
          <mxGeometry relative="1" as="geometry" />
        </mxCell>
        <mxCell id="kCLPto10Mg7Tokv_uA4M-18" value="Tail" style="text;html=1;strokeColor=none;fillColor=none;align=center;verticalAlign=middle;whiteSpace=wrap;rounded=0;fontSize=18;" vertex="1" parent="1">
          <mxGeometry x="660" y="310" width="40" height="20" as="geometry" />
        </mxCell>
        <mxCell id="kCLPto10Mg7Tokv_uA4M-25" style="edgeStyle=orthogonalEdgeStyle;rounded=0;orthogonalLoop=1;jettySize=auto;html=1;strokeWidth=2;" edge="1" parent="1" target="kCLPto10Mg7Tokv_uA4M-3">
          <mxGeometry relative="1" as="geometry">
            <mxPoint x="375" y="190" as="sourcePoint" />
          </mxGeometry>
        </mxCell>
        <mxCell id="kCLPto10Mg7Tokv_uA4M-26" value="Hashtable" style="text;html=1;strokeColor=none;fillColor=none;align=center;verticalAlign=middle;whiteSpace=wrap;rounded=0;fontSize=18;" vertex="1" parent="1">
          <mxGeometry x="310" y="82" width="90" height="20" as="geometry" />
        </mxCell>
        <mxCell id="kCLPto10Mg7Tokv_uA4M-27" value="LRU List" style="text;html=1;strokeColor=none;fillColor=none;align=center;verticalAlign=middle;whiteSpace=wrap;rounded=0;fontSize=18;" vertex="1" parent="1">
          <mxGeometry x="390" y="450" width="110" height="20" as="geometry" />
        </mxCell>
      </root>
    </mxGraphModel>
  </diagram>
</mxfile>
